<svg xmlns="http://www.w3.org/2000/svg" xmlns:xlink="http://www.w3.org/1999/xlink" width="500" zoomAndPan="magnify" viewBox="0 0 375 374.999991" height="500" preserveAspectRatio="xMidYMid meet" version="1.0"><defs><clipPath id="21f9e9e8fd"><path d="M 57.585938 0 L 309.585938 0 L 309.585938 188 L 57.585938 188 Z M 57.585938 0 " clip-rule="nonzero"/></clipPath><clipPath id="1a3309ef92"><path d="M 57.585938 97 L 222 97 L 222 285 L 57.585938 285 Z M 57.585938 97 " clip-rule="nonzero"/></clipPath><clipPath id="0757373f69"><path d="M 221 90 L 309.585938 90 L 309.585938 195 L 221 195 Z M 221 90 " clip-rule="nonzero"/></clipPath><clipPath id="c53753c643"><path d="M 57.585938 232 L 222 232 L 222 375 L 57.585938 375 Z M 57.585938 232 " clip-rule="nonzero"/></clipPath><clipPath id="3289d44891"><path d="M 221 232 L 309.585938 232 L 309.585938 375 L 221 375 Z M 221 232 " clip-rule="nonzero"/></clipPath></defs><g clip-path="url(#21f9e9e8fd)"><path fill="#737373" d="M 57.585938 187.5 L 221.664062 90.101562 L 221.664062 90.695312 L 309.773438 45.449219 L 221.664062 0.203125 L 57.585938 97.601562 Z M 57.585938 187.5 " fill-opacity="1" fill-rule="evenodd"/></g><g clip-path="url(#1a3309ef92)"><path fill="#d9d9d9" d="M 57.585938 97.601562 L 221.664062 194.882812 L 221.664062 284.777344 L 57.585938 187.5 Z M 57.585938 97.601562 " fill-opacity="1" fill-rule="evenodd"/></g><g clip-path="url(#0757373f69)"><path fill="#737373" d="M 221.664062 90.101562 L 309.773438 142.371094 L 221.664062 194.644531 Z M 221.664062 90.101562 " fill-opacity="1" fill-rule="evenodd"/></g><g clip-path="url(#c53753c643)"><path fill="#737373" d="M 133.3125 232.390625 L 221.664062 284.777344 L 221.664062 374.796875 L 57.585938 277.398438 Z M 133.3125 232.390625 " fill-opacity="1" fill-rule="evenodd"/></g><g clip-path="url(#3289d44891)"><path fill="#d9d9d9" d="M 309.773438 232.507812 L 221.664062 284.777344 L 221.664062 374.796875 L 309.773438 322.40625 Z M 309.773438 232.507812 " fill-opacity="1" fill-rule="evenodd"/></g></svg>